<?xml version="1.0" encoding="UTF-8" standalone="no"?>
<!-- Created with Inkscape (http://www.inkscape.org/) -->

<svg
   version="1.1"
   id="svg1"
   width="762"
   height="762"
   viewBox="0 0 762 762"
   xmlns="http://www.w3.org/2000/svg"
   xmlns:svg="http://www.w3.org/2000/svg">
  <defs
     id="defs1" />
  <g
     id="g1">
    <path
       style="fill:#ffffff;fill-opacity:1"
       d="M 356.14959,754.74415 C 202.98969,743.20311 71.207785,639.42833 24.314385,493.43265 -40.968215,290.18531 83.141385,68.271098 290.50419,17.471965 c 56.0522,-13.7314975 118.875,-14.4918705 173.3994,-2.098732 21.0124,4.776004 44.9957,12.521481 61.246,19.779529 19.8863,8.882038 34.5066,15.990415 42.5,20.663454 33.5484,19.61278 33.3611,19.23302 13.4293,27.23435 -19.2921,7.74456 -26.1313,10.56768 -32.4293,13.38642 -1.1,0.49231 -13.025,5.246274 -26.5,10.564364 -13.475,5.3181 -26.5156,10.57395 -28.9791,11.67967 l -4.4792,2.0104 -6.0208,-2.05877 c -3.3115,-1.13232 -16.5959,-6.08914 -29.5209,-11.01515 -12.925,-4.92601 -26.65,-10.145714 -30.5,-11.599364 -3.85,-1.45365 -7.9,-3.03219 -9,-3.50787 -4.8938,-2.11627 -30.1157,-11.08595 -31.1615,-11.08199 -0.8544,0.003 -1.1188,6.41596 -1,24.254374 l 0.1615,24.25 -14,0.65246 c -113.5727,5.29299 -210.6329,90.79628 -231.9679,204.34754 -27.9216,148.60759 82.7213,289.00153 234.2179,297.19733 l 11.25,0.60862 v 59.76524 c 0,32.87088 0.2732,60.47704 0.607,61.34702 0.607,1.5819 -11.065,1.98907 -25.607,0.89329 z m 59,-87.10887 v -87.76819 l 20.25,-8.17641 c 39.2106,-15.83218 69.3712,-28.05834 80.75,-32.73358 6.325,-2.59875 19.825,-8.1099 30,-12.24698 10.175,-4.13709 22.775,-9.29032 28,-11.45163 5.225,-2.16131 24.4873,-9.98256 42.8051,-17.38056 18.3178,-7.398 34.608,-14.12464 36.2004,-14.94809 6.4068,-3.31313 6.0407,-6.1495 5.7545,44.58296 l -0.26,46.08015 -14.5,5.79593 c -7.975,3.18777 -24.625,9.9476 -37,15.02185 -12.375,5.07426 -28.35,11.6089 -35.5,14.52144 -7.15,2.91253 -14.6875,6.02267 -16.75,6.91142 l -3.75,1.6159 v 41.38875 41.38876 l -2.75,1.02368 c -1.5125,0.56303 -14.45,5.82374 -28.75,11.69046 -35.3973,14.52212 -86.8005,35.42709 -99.75,40.56697 l -4.75,1.88536 z m 51,-151.75973 c -1.375,-0.23207 -6.325,-0.93216 -11,-1.55577 -18.1507,-2.42114 -35.6351,-9.42016 -42.4915,-17.00942 l -3.5085,-3.88347 v -57.74712 l 0.01,-57.74712 3.3713,3.67034 c 21.1154,22.98863 110.3101,24.11781 133.8815,1.6949 2.2343,-2.12588 4.2145,-3.86524 4.4,-3.86524 0.1855,0 0.3372,25.85682 0.3372,57.4596 v 57.4596 l -4.0163,4.09743 c -6.3535,6.48186 -18.1973,11.47403 -36.9837,15.58861 -6.2293,1.36433 -38.7556,2.7228 -44,1.83766 z m 113,-94.37551 v -61.93261 l 2.25,-0.69665 c 1.9391,-0.60038 24.4649,-9.89764 30.25,-12.48534 1.1,-0.49203 16.625,-6.74196 34.5,-13.88874 17.875,-7.14678 41.95,-16.87042 53.5,-21.60808 11.55,-4.73766 21.753,-8.69089 22.6734,-8.78495 1.774,-0.1813 3.7384,119.23568 2.0075,122.03634 -0.396,0.64071 -8.8112,4.36889 -18.7004,8.28484 -9.8893,3.91596 -22.7055,9.08534 -28.4805,11.48752 -5.775,2.40218 -19.5,7.95323 -30.5,12.33566 -11,4.38243 -30.3367,12.29178 -42.9704,17.57634 -12.6337,5.28455 -23.3212,9.60828 -23.75,9.60828 -0.4288,0 -0.7796,-27.86968 -0.7796,-61.93261 z m -121.5,-33.53133 c -32.6356,-4.53881 -53.8112,-18.17978 -45.25,-29.14925 21.5005,-27.54844 119.0007,-27.62496 135.7794,-0.10657 11.3618,18.63432 -42.2729,35.96711 -90.5294,29.25582 z m 74,-60.13593 c -25.229,-9.66103 -65.7753,-24.99197 -93.5,-35.35323 -13.475,-5.03586 -25.5125,-9.57189 -26.75,-10.08007 l -2.25,-0.92395 v -80.52144 c 0,-44.28679 0.3478,-80.52144 0.7728,-80.52144 0.878,0 15.6829,5.53922 18.7272,7.00673 1.8013,0.86829 16.7967,6.5389 62,23.44562 8.25,3.08563 15.9,6.01229 17,6.50369 5.8924,2.63231 41.2307,16.04396 42.2742,16.04396 0.9576,0 1.2258,17.6147 1.2258,80.5 0,63.75733 -0.26,80.49064 -1.25,80.45501 -0.6875,-0.0248 -8.9,-2.97444 -18.25,-6.55488 z m 47.5,-85.09802 v -87.83267 l -5.25,-1.8161 c -14.0546,-4.86183 -46.7502,-17.79901 -46.7463,-18.49685 0,-0.36107 12.0395,-5.48403 26.75,-11.38436 47.3195,-18.9797 71.256,-28.666344 77.0689,-31.188264 3.1226,-1.35473 14.9024,-6.14179 26.1774,-10.63792 11.275,-4.49613 37.7889,-15.098288 58.9197,-23.560357 21.1308,-8.462068 38.5683,-15.385579 38.75,-15.385579 0.1817,0 0.3303,37.704566 0.3303,83.78791 v 83.78792 l -11.75,4.68519 c -6.4625,2.57685 -25.25,10.15388 -41.75,16.83783 -16.5,6.68396 -32.8125,13.26481 -36.25,14.62411 l -6.25,2.47146 -0.029,25.15279 -0.029,25.15278 -24.7207,9.92237 c -43.7528,17.56147 -50.6791,20.30969 -52.9706,21.01745 l -2.25,0.69496 z"
       id="path1" />
  </g>
</svg>
